<?xml version="1.0" standalone="no"?><!DOCTYPE svg PUBLIC "-//W3C//DTD SVG 1.1//EN" "http://www.w3.org/Graphics/SVG/1.1/DTD/svg11.dtd"><svg t="1664692181241" class="icon" viewBox="0 0 1024 1024" version="1.1" xmlns="http://www.w3.org/2000/svg" p-id="1383" xmlns:xlink="http://www.w3.org/1999/xlink" width="200" height="200"><path d="M907.6 264.8c27.2 0 49.4-22.2 49.4-49.4S934.8 166 907.6 166H116.4c-27.2 0-49.4 22.2-49.4 49.4s22.2 49.4 49.4 49.4h791.2z m-197.8 197.8c27.2 0 49.4-22.2 49.4-49.4s-22.2-49.4-49.4-49.4H314.2c-27.2 0-49.4 22.2-49.4 49.4s22.2 49.4 49.4 49.4h395.6z m247.2 148.2c0 27.2-22.2 49.4-49.4 49.4H116.4c-27.2 0-49.4-22.2-49.4-49.4s22.2-49.4 49.4-49.4h791.2c27.2 0 49.4 22.2 49.4 49.4zM709.8 858.2c27.2 0 49.4-22.2 49.4-49.4s-22.2-49.4-49.4-49.4H314.2c-27.2 0-49.4 22.2-49.4 49.4s22.2 49.4 49.4 49.4h395.6z" fill="#333333" p-id="1384"></path></svg>